REM DIRINDEX 1\2\5,1\2\6,1\2\7,1\2\8,1\3\9,1\3\10,1\3\11,1\4\12,1\4\13,1\4\14,1\4\15,1\4\16
REM DIRNAME cjc034,folder01,folder02,folder03,folder04,folder05,folder06,folder07,folder08,folder09,folder10,folder11,folder12,folder13,folder14,folder15
TITLE ""
FILE "1200_2_sec03_0837_0853.mp3" MP3
  TRACK 01 AUDIO
    TITLE "0:"
    INDEX 01 00:00:00
  TRACK 02 AUDIO
    TITLE "10:cjc034_01722"
    INDEX 01 00:00:15
  TRACK 03 AUDIO
    TITLE "0:"
    INDEX 01 00:02:26
  TRACK 04 AUDIO
    TITLE "9:cjc034_01723"
    INDEX 01 00:02:28
  TRACK 05 AUDIO
    TITLE "0:"
    INDEX 01 00:03:41
  TRACK 06 AUDIO
    TITLE "10:cjc034_01724"
    INDEX 01 00:04:25
  TRACK 07 AUDIO
    TITLE "0:"
    INDEX 01 00:06:43
  TRACK 08 AUDIO
    TITLE "9:cjc034_01725"
    INDEX 01 00:06:45
  TRACK 09 AUDIO
    TITLE "0:"
    INDEX 01 00:07:52
  TRACK 10 AUDIO
    TITLE "10:cjc034_01726"
    INDEX 01 00:08:36
  TRACK 11 AUDIO
    TITLE "0:"
    INDEX 01 00:09:28
  TRACK 12 AUDIO
    TITLE "9:cjc034_01727"
    INDEX 01 00:09:32
  TRACK 13 AUDIO
    TITLE "0:"
    INDEX 01 00:10:43
  TRACK 14 AUDIO
    TITLE "10:cjc034_01728"
    INDEX 01 00:11:27
  TRACK 15 AUDIO
    TITLE "0:"
    INDEX 01 00:14:17
  TRACK 16 AUDIO
    TITLE "9:cjc034_01729"
    INDEX 01 00:14:25
  TRACK 17 AUDIO
    TITLE "0:"
    INDEX 01 00:15:58
  TRACK 18 AUDIO
    TITLE "10:cjc034_01730"
    INDEX 01 00:16:38
  TRACK 19 AUDIO
    TITLE "0:"
    INDEX 01 00:18:31
  TRACK 20 AUDIO
    TITLE "9:cjc034_01731"
    INDEX 01 00:18:35
  TRACK 21 AUDIO
    TITLE "0:"
    INDEX 01 00:19:52
  TRACK 22 AUDIO
    TITLE "10:cjc034_01732"
    INDEX 01 00:20:36
  TRACK 23 AUDIO
    TITLE "0:"
    INDEX 01 00:21:37
  TRACK 24 AUDIO
    TITLE "9:cjc034_01733"
    INDEX 01 00:21:41
  TRACK 25 AUDIO
    TITLE "0:"
    INDEX 01 00:22:62
  TRACK 26 AUDIO
    TITLE "10:cjc034_01734"
    INDEX 01 00:23:44
  TRACK 27 AUDIO
    TITLE "0:"
    INDEX 01 00:24:43
  TRACK 28 AUDIO
    TITLE "9:cjc034_01735"
    INDEX 01 00:24:55
  TRACK 29 AUDIO
    TITLE "0:"
    INDEX 01 00:26:05
  TRACK 30 AUDIO
    TITLE "10:cjc034_01736"
    INDEX 01 00:26:58
  TRACK 31 AUDIO
    TITLE "0:"
    INDEX 01 00:27:73
  TRACK 32 AUDIO
    TITLE "9:cjc034_01737"
    INDEX 01 00:28:04
  TRACK 33 AUDIO
    TITLE "0:"
    INDEX 01 00:29:25
  TRACK 34 AUDIO
    TITLE "10:cjc034_01738"
    INDEX 01 00:30:14
  TRACK 35 AUDIO
    TITLE "0:"
    INDEX 01 00:31:04
  TRACK 36 AUDIO
    TITLE "9:cjc034_01739"
    INDEX 01 00:31:10
  TRACK 37 AUDIO
    TITLE "0:"
    INDEX 01 00:32:19
  TRACK 38 AUDIO
    TITLE "10:cjc034_01740"
    INDEX 01 00:33:03
  TRACK 39 AUDIO
    TITLE "0:"
    INDEX 01 00:34:73
  TRACK 40 AUDIO
    TITLE "9:cjc034_01741"
    INDEX 01 00:35:08
  TRACK 41 AUDIO
    TITLE "0:"
    INDEX 01 00:36:07
  TRACK 42 AUDIO
    TITLE "10:cjc034_01742"
    INDEX 01 00:36:66
  TRACK 43 AUDIO
    TITLE "0:"
    INDEX 01 00:37:52
  TRACK 44 AUDIO
    TITLE "9:cjc034_01743"
    INDEX 01 00:37:57
  TRACK 45 AUDIO
    TITLE "0:"
    INDEX 01 00:38:61
  TRACK 46 AUDIO
    TITLE "10:cjc034_01744"
    INDEX 01 00:39:51
  TRACK 47 AUDIO
    TITLE "0:"
    INDEX 01 00:41:44
  TRACK 48 AUDIO
    TITLE "9:cjc034_01745"
    INDEX 01 00:41:47
  TRACK 49 AUDIO
    TITLE "0:"
    INDEX 01 00:42:61
  TRACK 50 AUDIO
    TITLE "11:cjc034_01746"
    INDEX 01 00:44:38
  TRACK 51 AUDIO
    TITLE "0:"
    INDEX 01 00:49:35
  TRACK 52 AUDIO
    TITLE "10:cjc034_01747"
    INDEX 01 00:50:41
  TRACK 53 AUDIO
    TITLE "0:"
    INDEX 01 00:51:58
  TRACK 54 AUDIO
    TITLE "9:cjc034_01748"
    INDEX 01 00:51:62
  TRACK 55 AUDIO
    TITLE "0:"
    INDEX 01 00:53:19
  TRACK 56 AUDIO
    TITLE "10:cjc034_01749"
    INDEX 01 00:54:05
  TRACK 57 AUDIO
    TITLE "0:"
    INDEX 01 00:57:13
  TRACK 58 AUDIO
    TITLE "9:cjc034_01750"
    INDEX 01 00:57:19
  TRACK 59 AUDIO
    TITLE "0:"
    INDEX 01 00:58:50
  TRACK 60 AUDIO
    TITLE "10:cjc034_01751"
    INDEX 01 00:59:32
  TRACK 61 AUDIO
    TITLE "0:"
    INDEX 01 01:01:42
  TRACK 62 AUDIO
    TITLE "9:cjc034_01752"
    INDEX 01 01:01:44
  TRACK 63 AUDIO
    TITLE "0:"
    INDEX 01 01:02:67
  TRACK 64 AUDIO
    TITLE "10:cjc034_01753"
    INDEX 01 01:03:49
  TRACK 65 AUDIO
    TITLE "0:"
    INDEX 01 01:04:74
  TRACK 66 AUDIO
    TITLE "9:cjc034_01754"
    INDEX 01 01:05:05
  TRACK 67 AUDIO
    TITLE "0:"
    INDEX 01 01:06:40
  TRACK 68 AUDIO
    TITLE "10:cjc034_01755"
    INDEX 01 01:07:23
  TRACK 69 AUDIO
    TITLE "0:"
    INDEX 01 01:08:25
  TRACK 70 AUDIO
    TITLE "9:cjc034_01756"
    INDEX 01 01:08:35
  TRACK 71 AUDIO
    TITLE "0:"
    INDEX 01 01:09:61
